<svg width="114" height="24" viewBox="0 0 114 24" fill="none" xmlns="http://www.w3.org/2000/svg">
<rect width="24" height="24" fill="#FFE800"/>
<path fill-rule="evenodd" clip-rule="evenodd" d="M9.22811 14.3451C9.25356 15.9506 10.6333 16.5986 12.1189 16.5986C13.2073 16.5986 14.5855 16.1834 14.5855 14.8886C14.5855 13.7744 13.0202 13.3856 10.3142 12.816C8.14079 12.3486 5.96495 11.5985 5.96495 9.2412C5.96495 5.82247 8.99104 4.94116 11.9345 4.94116C14.9301 4.94116 17.688 5.92504 17.9805 9.21584H14.3998C14.2941 7.79014 13.1806 7.40114 11.8271 7.40114C10.9788 7.40114 9.73237 7.55733 9.73237 8.64555C9.73237 9.96639 11.8548 10.1475 14.002 10.6407C16.2031 11.1324 18.3529 11.9096 18.3529 14.3969C18.3529 17.9192 15.222 19.0588 12.0915 19.0588C8.90996 19.0588 5.80745 17.8938 5.64706 14.3451H9.22811Z" fill="black"/>
<rect width="85.9412" height="24" transform="translate(27.5294)" fill="#FFE800"/>
<path d="M41.3587 15.3482C41.9223 15.3482 42.3798 15.2861 42.7314 15.1621C43.3983 14.9242 43.7318 14.4822 43.7318 13.8359C43.7318 13.4585 43.5663 13.1664 43.2355 12.9596C42.9046 12.758 42.385 12.5796 41.6767 12.4245L40.4669 12.1531C39.2778 11.8842 38.4558 11.5921 38.0008 11.2768C37.2305 10.7494 36.8453 9.9248 36.8453 8.80291C36.8453 7.77924 37.2175 6.92877 37.962 6.25149C38.7065 5.57422 39.8 5.23558 41.2424 5.23558C42.447 5.23558 43.4733 5.55612 44.3212 6.19721C45.1742 6.83312 45.6214 7.75856 45.6628 8.97352H43.3673C43.3259 8.2859 43.0261 7.79733 42.4677 7.50781C42.0955 7.31652 41.6328 7.22087 41.0796 7.22087C40.4643 7.22087 39.9732 7.34496 39.6061 7.59312C39.239 7.84128 39.0555 8.18767 39.0555 8.6323C39.0555 9.04073 39.2364 9.34576 39.5983 9.54739C39.831 9.68181 40.3273 9.8395 41.0873 10.0204L43.0571 10.4935C43.9205 10.7003 44.5719 10.9769 45.0114 11.3233C45.6938 11.861 46.035 12.6391 46.035 13.6576C46.035 14.7019 45.6344 15.5705 44.833 16.2633C44.0368 16.9509 42.9098 17.2947 41.4518 17.2947C39.9628 17.2947 38.7918 16.9561 37.9388 16.2788C37.0857 15.5963 36.6592 14.6606 36.6592 13.4714H38.9392C39.0115 13.9936 39.1537 14.384 39.3657 14.6425C39.7534 15.1129 40.4178 15.3482 41.3587 15.3482ZM47.3781 9.46209C47.9623 8.7176 48.9653 8.34536 50.387 8.34536C51.3125 8.34536 52.1345 8.52889 52.8531 8.89597C53.5718 9.26304 53.9311 9.95582 53.9311 10.9743V14.8518C53.9311 15.1207 53.9363 15.4464 53.9466 15.829C53.9621 16.1185 54.0061 16.315 54.0784 16.4184C54.1508 16.5218 54.2594 16.6071 54.4042 16.6743V17H52.0001C51.9329 16.8294 51.8864 16.6691 51.8605 16.5192C51.8347 16.3693 51.814 16.1986 51.7985 16.0074C51.4934 16.3382 51.1419 16.62 50.7438 16.8527C50.2681 17.1267 49.7304 17.2637 49.1307 17.2637C48.3656 17.2637 47.7322 17.0465 47.2307 16.6122C46.7344 16.1728 46.4862 15.5524 46.4862 14.751C46.4862 13.7119 46.8869 12.9596 47.6883 12.4943C48.1277 12.241 48.774 12.06 49.627 11.9515L50.3793 11.8584C50.7877 11.8067 51.0798 11.7421 51.2556 11.6645C51.571 11.5301 51.7287 11.3207 51.7287 11.0364C51.7287 10.69 51.6072 10.4521 51.3642 10.3229C51.1264 10.1885 50.7748 10.1213 50.3095 10.1213C49.7873 10.1213 49.4177 10.2505 49.2005 10.509C49.0454 10.7003 48.942 10.9588 48.8903 11.2845H46.7577C46.8042 10.5452 47.011 9.93773 47.3781 9.46209ZM49.0222 15.4025C49.229 15.5731 49.4823 15.6584 49.7821 15.6584C50.2578 15.6584 50.6947 15.5188 51.0928 15.2396C51.496 14.9604 51.7054 14.4512 51.7209 13.7119V12.8898C51.5813 12.9777 51.4391 13.0501 51.2944 13.107C51.1548 13.1587 50.9609 13.2078 50.7128 13.2543L50.2164 13.3474C49.7511 13.4301 49.4177 13.5309 49.216 13.6498C48.8748 13.8514 48.7042 14.1642 48.7042 14.5882C48.7042 14.9656 48.8102 15.237 49.0222 15.4025ZM62.9749 12.0368V17H60.7182V11.8584C60.7182 11.4034 60.6406 11.0364 60.4855 10.7572C60.2839 10.3643 59.9013 10.1678 59.3378 10.1678C58.7536 10.1678 58.3089 10.3643 58.0039 10.7572C57.7041 11.1449 57.5541 11.7007 57.5541 12.4245V17H55.3517V5.60782H57.5541V9.64821C57.8747 9.15705 58.2443 8.81583 58.6631 8.62454C59.087 8.42808 59.5317 8.32985 59.997 8.32985C60.5191 8.32985 60.9922 8.42032 61.4161 8.60127C61.8453 8.78223 62.1968 9.05882 62.4708 9.43107C62.7035 9.74644 62.8457 10.0722 62.8974 10.4082C62.9491 10.7391 62.9749 11.2819 62.9749 12.0368ZM66.753 8.54699V17H64.5118V8.54699H66.753ZM66.753 5.49925V7.53883H64.5118V5.49925H66.753ZM73.4393 17H68.5148V5.56905H73.4393C74.1476 5.57939 74.737 5.66211 75.2075 5.81721C76.0088 6.08088 76.6577 6.56428 77.154 7.26741C77.5521 7.83611 77.8235 8.45134 77.9683 9.11311C78.113 9.77487 78.1854 10.4056 78.1854 11.0053C78.1854 12.5253 77.8804 13.8127 77.2703 14.8674C76.4431 16.2891 75.1661 17 73.4393 17ZM75.2152 8.48495C74.8481 7.86454 74.1217 7.55434 73.036 7.55434H70.8336V15.0147H73.036C74.1631 15.0147 74.949 14.4589 75.3936 13.3474C75.6366 12.7373 75.7581 12.0109 75.7581 11.1682C75.7581 10.0049 75.5771 9.11052 75.2152 8.48495ZM86.4847 14.5184C86.4278 15.0199 86.1668 15.5291 85.7015 16.0461C84.9777 16.8682 83.9643 17.2792 82.6615 17.2792C81.5861 17.2792 80.6374 16.9328 79.8154 16.24C78.9933 15.5472 78.5823 14.4202 78.5823 12.8588C78.5823 11.3957 78.952 10.2738 79.6913 9.49311C80.4358 8.71243 81.4 8.32209 82.5839 8.32209C83.2871 8.32209 83.9204 8.45393 84.4839 8.7176C85.0474 8.98127 85.5128 9.39746 85.8798 9.96616C86.2107 10.4677 86.4253 11.0493 86.5235 11.7111C86.5804 12.0988 86.6036 12.6572 86.5933 13.3861H80.808C80.839 14.234 81.1053 14.8286 81.6068 15.1698C81.9118 15.3818 82.2789 15.4878 82.708 15.4878C83.163 15.4878 83.5326 15.3585 83.817 15.1C83.9721 14.9604 84.1091 14.7665 84.228 14.5184H86.4847ZM84.2978 11.9282C84.2616 11.344 84.0832 10.9019 83.7627 10.6021C83.4473 10.297 83.0544 10.1445 82.5839 10.1445C82.0721 10.1445 81.674 10.3048 81.3896 10.6253C81.1105 10.9459 80.9347 11.3802 80.8623 11.9282H84.2978ZM95.2804 17H92.6126L90.5886 13.3861L89.6735 14.34V17H87.502V5.60782H89.6735V11.7653L92.4265 8.58576H95.164L92.2094 11.8196L95.2804 17ZM102.851 9.61719C103.564 10.5116 103.921 11.5689 103.921 12.789C103.921 14.0298 103.564 15.0923 102.851 15.9763C102.137 16.8552 101.054 17.2947 99.6013 17.2947C98.1486 17.2947 97.0654 16.8552 96.352 15.9763C95.6385 15.0923 95.2818 14.0298 95.2818 12.789C95.2818 11.5689 95.6385 10.5116 96.352 9.61719C97.0654 8.72277 98.1486 8.27556 99.6013 8.27556C101.054 8.27556 102.137 8.72277 102.851 9.61719ZM99.5936 10.1445C98.9473 10.1445 98.4484 10.3746 98.0969 10.8347C97.7505 11.2897 97.5773 11.9411 97.5773 12.789C97.5773 13.6369 97.7505 14.2909 98.0969 14.751C98.4484 15.2112 98.9473 15.4412 99.5936 15.4412C100.24 15.4412 100.736 15.2112 101.083 14.751C101.429 14.2909 101.602 13.6369 101.602 12.789C101.602 11.9411 101.429 11.2897 101.083 10.8347C100.736 10.3746 100.24 10.1445 99.5936 10.1445Z" fill="black"/>
</svg>
